<?xml version="1.0" encoding="UTF-8"?>
<svg xmlns="http://www.w3.org/2000/svg" viewBox="0 0 77.74377 17.52927">
    <defs>
        <style>.d{fill:#9B4BFF;}</style>
    </defs>
    <g id="a"/>
    <g id="b">
        <g id="c">
            <g>
                <polygon class="d" points="0 4.33231 5.64853 4.33231 5.64853 4.33306 9.20808 4.33306 9.20808 4.33231 15.09468 4.33231 15.09468 .77277 0 .77277 0 4.33231"/>
                <rect class="d" x="5.64853" y="6.81435" width="3.55955" height="10.71493"/>
                <polygon class="d" points="28.9021 6.84167 21.18973 6.84167 21.18973 .80102 17.63024 .80102 17.63024 17.52927 21.18973 17.52927 21.18973 10.40141 28.9021 10.40141 28.9021 17.52927 32.46159 17.52927 32.46159 .80102 28.9021 .80102 28.9021 6.84167"/>
                <polygon class="d" points="35.03213 1.43793 35.03213 4.33007 50.00669 4.33007 50.00669 .77052 35.03288 .77052 35.03213 1.43793"/>
                <polygon class="d" points="38.59242 10.37091 48.51316 10.37091 48.51316 6.78914 35.03288 6.78914 35.03213 17.52927 50.00669 17.52927 50.00669 13.96973 38.59242 13.96973 38.59242 10.37091"/>
                <rect class="d" x="53.09314" y=".73866" width="3.55955" height="16.79062"/>
                <polygon class="d" points="58.34427 17.52927 62.80929 17.52927 66.62832 10.62821 64.38884 6.60814 58.34427 17.52927"/>
                <polygon class="d" points="68.02916 0 65.81191 4.03717 65.80444 4.05049 73.27874 17.52927 77.74377 17.52927 68.02916 0"/>
            </g>
        </g>
    </g>
</svg>