<?xml version="1.0" encoding="UTF-8"?><svg xmlns="http://www.w3.org/2000/svg" viewBox="0 0 17.17314 12.1608"><defs><style>.d{fill:#fff;}</style></defs><g id="a"/><g id="b"><g id="c"><g><path class="d" d="M17.0311,5.67262c-.09908-.12543-1.56509-1.96791-3.75421-3.34816l1.39008-1.39008-.93446-.93438L2.50608,11.22642l.93446,.93438,1.65756-1.65755c1.0632,.51181,2.2453,.85852,3.48682,.85852,2.28158,0,4.35187-1.16888,5.87408-2.36413,1.52213-1.19202,2.49286-2.41039,2.57211-2.50946,.09246-.11891,.14204-.26417,.14204-.40943s-.04958-.28731-.14204-.40613Zm-7.1717,.06933l1.00379-1.00379c.23112,.39291,.36324,.85191,.36324,1.34059,0,1.45618-1.18211,2.64151-2.64151,2.64151-.48868,0-.94438-.13205-1.33728-.36647l1.00048-1.00048h-.00002l1.61131-1.61136Z"/><path class="d" d="M5.95002,5.91365c.08255-1.32406,1.14575-2.38726,2.46981-2.46981l2.31463-2.31462c-.68682-.20806-1.40661-.3335-2.14953-.3335C6.30657,.79573,4.23297,1.96461,2.71415,3.15993,1.19194,4.35187,.2212,5.57025,.14196,5.67262c-.09577,.11882-.14196,.26086-.14196,.40613s.04619,.29052,.14196,.40943c.07924,.10238,1.08633,1.36372,2.65804,2.57549l3.15002-3.15002Z"/><path class="d" d="M8.58492,7.3995c.72971,0,1.32076-.59105,1.32076-1.32075,0-.1156-.01652-.22781-.04627-.3368l-1.61129,1.61136c.10899,.02967,.2212,.04619,.3368,.04619Z"/></g></g></g></svg>