<svg xmlns="http://www.w3.org/2000/svg" viewBox="0 0 34.33 21.01"><defs><style>.cls-1{fill:#fff;}</style></defs><g id="Layer_2" data-name="Layer 2"><g id="Layer_1-2" data-name="Layer 1"><path class="cls-1" d="M33.87.9A.84.84,0,0,0,33,1L27,5.59V.84A.87.87,0,0,0,26.16,0H4.38A4.36,4.36,0,0,0,0,4.33V16.68A4.36,4.36,0,0,0,4.38,21H26.16a.86.86,0,0,0,.85-.78V15.37L33,20a.88.88,0,0,0,.53.19,1,1,0,0,0,.32-.13.79.79,0,0,0,.46-.71V1.62A.81.81,0,0,0,33.87.9Zm-8.5,18.49h-21a2.75,2.75,0,0,1-2.75-2.71V4.33A2.75,2.75,0,0,1,4.38,1.62h21V19.39Zm7.39-1.68L27,13.32V7.69L32.76,3.3Z"/></g></g></svg>