<?xml version="1.0" encoding="utf-8"?>
<!-- Generator: Adobe Illustrator 24.2.1, SVG Export Plug-In . SVG Version: 6.00 Build 0)  -->
<svg version="1.1" id="Layer_1" xmlns="http://www.w3.org/2000/svg" xmlns:xlink="http://www.w3.org/1999/xlink" x="0px" y="0px"
	 viewBox="0 0 23 23" style="enable-background:new 0 0 23 23;" xml:space="preserve">
<style type="text/css">
	.st0{fill:#984BFF;}
</style>
<g id="a">
</g>
<path class="st0" d="M11.5,0C5.2,0,0,5.2,0,11.5S5.2,23,11.5,23S23,17.8,23,11.5S17.8,0,11.5,0z M16,12.4h-4v4
	c0,0.3-0.2,0.5-0.5,0.5c-0.3,0-0.5-0.2-0.5-0.5v-4H7c-0.3,0-0.5-0.2-0.5-0.5c0-0.3,0.2-0.5,0.5-0.5h4v-4c0-0.3,0.2-0.5,0.5-0.5
	c0.3,0,0.5,0.2,0.5,0.5v4h4c0.3,0,0.5,0.2,0.5,0.5C16.5,12.2,16.3,12.4,16,12.4z"/>
</svg>
