<?xml version="1.0" encoding="utf-8"?>
<!-- Generator: Adobe Illustrator 24.2.1, SVG Export Plug-In . SVG Version: 6.00 Build 0)  -->
<svg version="1.1" id="Layer_1" xmlns="http://www.w3.org/2000/svg" xmlns:xlink="http://www.w3.org/1999/xlink" x="0px" y="0px"
	 viewBox="0 0 25.3 22" style="enable-background:new 0 0 25.3 22;" xml:space="preserve">
<style type="text/css">
	.st0{fill:#FFFFFF;}
</style>
<g id="a">
</g>
<g id="b">
	<g id="c">
		<g>
			<path class="st0" d="M24,5.8H1.4c-0.7,0-1.3-0.6-1.3-1.3s0.6-1.3,1.3-1.3H24c0.7,0,1.3,0.6,1.3,1.3S24.7,5.8,24,5.8z"/>
			<path class="st0" d="M24,12.4H1.4c-0.7,0-1.3-0.6-1.3-1.3s0.6-1.3,1.3-1.3H24c0.7,0,1.3,0.6,1.3,1.3S24.7,12.4,24,12.4z"/>
			<path class="st0" d="M24,19H1.4c-0.7,0-1.3-0.6-1.3-1.3s0.6-1.3,1.3-1.3H24c0.7,0,1.3,0.6,1.3,1.3S24.7,19,24,19z"/>
			<path class="st0" d="M7.3,8.9C6.6,8.9,6,8.3,6,7.6V1.4c0-0.7,0.6-1.3,1.3-1.3s1.3,0.6,1.3,1.3v6.1C8.6,8.3,8,8.9,7.3,8.9z"/>
			<path class="st0" d="M7.3,22.1c-0.7,0-1.3-0.6-1.3-1.3v-6.1c0-0.7,0.6-1.3,1.3-1.3s1.3,0.6,1.3,1.3v6.1C8.6,21.5,8,22.1,7.3,22.1
				z"/>
			<path class="st0" d="M18,15.6c-0.7,0-1.3-0.6-1.3-1.3V8.2c0-0.7,0.6-1.3,1.3-1.3s1.3,0.6,1.3,1.3v6.1C19.3,15,18.7,15.6,18,15.6z
				"/>
		</g>
	</g>
</g>
</svg>
