<?xml version="1.0" encoding="utf-8"?>
<!-- Generator: Adobe Illustrator 24.2.1, SVG Export Plug-In . SVG Version: 6.00 Build 0)  -->
<svg version="1.1" id="Layer_1" xmlns="http://www.w3.org/2000/svg" xmlns:xlink="http://www.w3.org/1999/xlink" x="0px" y="0px"
	 viewBox="0 0 17.8 21.9" style="enable-background:new 0 0 17.8 21.9;" xml:space="preserve">
<style type="text/css">
	.st0{fill:#FFFFFF;}
</style>
<g id="a">
</g>
<g id="b">
	<g id="c">
		<g>
			<path class="st0" d="M8.9,11.5c-3.2,0-5.7-2.6-5.7-5.7C3.2,2.6,5.7,0,8.9,0s5.7,2.6,5.7,5.7C14.6,8.9,12.1,11.5,8.9,11.5z
				 M8.9,1.9C6.8,1.9,5,3.6,5,5.7s1.7,3.9,3.9,3.9c2.1,0,3.9-1.7,3.9-3.9S11,1.9,8.9,1.9z"/>
			<path class="st0" d="M17.8,21.9H0v-3.2c0-4.4,3.6-8,8-8h1.8c4.4,0,8,3.6,8,8V21.9z M1.9,20h14v-1.3c0-3.4-2.7-6.1-6.1-6.1H8
				c-3.4,0-6.1,2.7-6.1,6.1V20z"/>
		</g>
	</g>
</g>
</svg>
