<?xml version="1.0" encoding="UTF-8"?><svg xmlns="http://www.w3.org/2000/svg" viewBox="0 0 17.17314 10.56604"><defs><style>.d{fill:#fff;}</style></defs><g id="a"/><g id="b"><g id="c"><g><path class="d" d="M17.0311,4.87359c-.15848-.19815-3.88303-4.87359-8.44618-4.87359C6.30656,0,4.23301,1.16888,2.71415,2.36412,1.19194,3.55614,.2212,4.77452,.14196,4.87359c-.09577,.11882-.14196,.26417-.14196,.40943s.04619,.28722,.14196,.40613c.15848,.20145,3.88303,4.87689,8.44296,4.87689,2.28158,0,4.35187-1.16888,5.87408-2.36412,1.52213-1.19202,2.49286-2.4104,2.57211-2.51277,.09246-.11891,.14204-.26086,.14204-.40613s-.04958-.29061-.14204-.40943Zm-8.44618,3.05094c-1.45619,0-2.64151-1.18541-2.64151-2.64151s1.18533-2.64151,2.64151-2.64151c1.45941,0,2.64151,1.18541,2.64151,2.64151s-1.1821,2.64151-2.64151,2.64151Z"/><circle class="d" cx="8.58492" cy="5.28302" r="1.32076"/></g></g></g></svg>