<?xml version="1.0" encoding="utf-8"?>
<!-- Generator: Adobe Illustrator 27.5.0, SVG Export Plug-In . SVG Version: 6.00 Build 0)  -->
<svg version="1.1" id="Layer_1" xmlns="http://www.w3.org/2000/svg" xmlns:xlink="http://www.w3.org/1999/xlink" x="0px" y="0px"
	 viewBox="0 0 19.3 22.9" style="enable-background:new 0 0 19.3 22.9;" xml:space="preserve">
<style type="text/css">
	.st0{fill:#FFFFFF;}
</style>
<g id="Layer_2_00000044898480891317785800000010436965208673683613_">
	<g id="Layer_1-2">
		<g id="b">
			<g id="c">
				<path class="st0" d="M9.9,22.9C8.3,22.9,7,21.6,7,20h1.9c0,0.6,0.5,1.1,1.1,1.1S11,20.6,11,20h1.9C12.9,21.6,11.5,22.9,9.9,22.9
					z"/>
				<path class="st0" d="M1.1,18.9c-0.7,0-1.1-0.5-1.1-1.2c0.1-2.5,1.1-4.7,2.9-6.4c0.5-0.5,0.8-1.2,0.8-1.9V7.7c0-0.3,0-0.7,0.1-1
					c0.5-3.2,3.6-5.4,6.8-4.9c3,0.5,5.1,3.1,5,6l0,1.6c0,0.7,0.3,1.4,0.8,1.9c1.7,1.7,2.7,4,2.9,6.4c0,0.7-0.5,1.2-1.1,1.2L1.1,18.9
					z M9.6,3.6C8.8,3.6,8,3.8,7.3,4.3C6.4,5,5.8,5.9,5.6,7c0,0.2-0.1,0.5-0.1,0.7v1.7c0,1.2-0.5,2.4-1.4,3.2C3,13.9,2.2,15.4,2,17
					l15.4,0c-0.2-1.6-1-3.2-2.2-4.4c-0.9-0.8-1.4-2-1.4-3.2h0V7.8c0-2.1-1.4-3.8-3.5-4.2C10,3.6,9.8,3.6,9.6,3.6z"/>
				<path class="st0" d="M9.6,3.6c-0.5,0-0.9-0.4-0.9-0.9V0.9C8.7,0.4,9.1,0,9.6,0s0.9,0.4,0.9,0.9v1.7C10.6,3.2,10.2,3.6,9.6,3.6z"
					/>
			</g>
		</g>
	</g>
</g>
</svg>
