<?xml version="1.0" encoding="UTF-8"?><svg xmlns="http://www.w3.org/2000/svg" viewBox="0 0 2.96617 15.97989"><defs><style>.d{fill:#fff;}</style></defs><g id="a"/><g id="b"><g id="c"><g><path class="d" d="M2.96617,1.48308c0,.81917-.66392,1.48308-1.48307,1.48308S0,2.30225,0,1.48308,.66392,0,1.4831,0s1.48307,.66392,1.48307,1.48308Z"/><path class="d" d="M2.96617,7.98994c0,.81898-.66392,1.48308-1.48307,1.48308s-1.4831-.6641-1.4831-1.48308c0-.81917,.66392-1.48327,1.4831-1.48327s1.48307,.6641,1.48307,1.48327Z"/><path class="d" d="M2.96617,14.49681c0,.81898-.66392,1.48308-1.48307,1.48308s-1.4831-.6641-1.4831-1.48308c0-.81917,.66392-1.48327,1.4831-1.48327s1.48307,.6641,1.48307,1.48327Z"/></g></g></g></svg>