<svg xmlns="http://www.w3.org/2000/svg" viewBox="0 0 41.99 41.99"><defs><style>.cls-1{fill:#fff;}</style></defs><g id="Layer_2" data-name="Layer 2"><g id="Layer_1-2" data-name="Layer 1"><path class="cls-1" d="M21,13a8,8,0,1,0,8,8A8,8,0,0,0,21,13Z"/><path class="cls-1" d="M41,20h-4.7A15.36,15.36,0,0,0,22,5.69V1a1,1,0,0,0-2,0v4.7A15.35,15.35,0,0,0,5.7,20H1a1,1,0,0,0,0,2H5.7A15.34,15.34,0,0,0,20,36.29V41a1,1,0,1,0,2,0v-4.7A15.35,15.35,0,0,0,36.29,22H41a1,1,0,1,0,0-2ZM21,34.64A13.65,13.65,0,1,1,34.64,21,13.68,13.68,0,0,1,21,34.64Z"/></g></g></svg>