<?xml version="1.0" encoding="UTF-8"?><svg xmlns="http://www.w3.org/2000/svg" viewBox="0 0 26.89505 25.6685"><defs><style>.d{fill:#d8d5e2;}</style></defs><g id="a"/><g id="b"><g id="c"><path class="d" d="M26.78544,13.13604L14.05722,.25467c-.33546-.33957-.88378-.33957-1.21924,0L.10976,13.13604c-.23564,.23838-.06677,.64267,.26846,.64267H2.5977c.47471,0,.85962,.38492,.85962,.85962v10.3932c0,.35187,.2851,.63697,.63697,.63697h5.40136c.35164,0,.63674-.2851,.63674-.63697v-6.46222c0-.27553,.22357-.49909,.49909-.49909h5.62083c.27553,0,.49909,.22357,.49909,.49909v6.46222c0,.35187,.2851,.63697,.63697,.63697h5.41253c.35164,0,.63674-.2851,.63674-.63697V14.63833c0-.47471,.38492-.85962,.85985-.85962h2.21948c.33501,0,.50388-.40429,.26846-.64267Z"/></g></g></svg>