<?xml version="1.0" encoding="UTF-8"?><svg xmlns="http://www.w3.org/2000/svg" viewBox="0 0 30.49151 25.6685"><defs><style>.d{fill:#d8d5e2;}</style></defs><g id="a"/><g id="b"><g id="c"><g><path class="d" d="M15.21732,8.43572c-2.90182,0-5.27626,2.34723-5.27626,5.21591s2.37444,5.21591,5.27626,5.21591c2.90216,0,5.27648-2.34723,5.27648-5.21591s-2.37433-5.21591-5.27648-5.21591Z"/><path class="d" d="M27.09746,3.46705h-3.22461l-.5658-1.39795c-.50891-1.23023-1.75354-2.0691-3.11121-2.0691H10.29567c-1.41406,0-2.6023,.78296-3.11121,2.0691l-.5658,1.39795H3.39405c-1.86682,0-3.39405,1.51001-3.39405,3.35547v15.49075c0,1.84522,1.52722,3.35523,3.39405,3.35523H27.04082c1.8667,0,3.39429-1.51001,3.45069-3.35523V6.82252c0-1.84546-1.52735-3.35547-3.39405-3.35547ZM15.21731,20.64188c-3.90333,0-7.07106-3.13135-7.07106-6.99025,0-3.85865,3.16773-6.99025,7.07106-6.99025s7.07155,3.1316,7.07155,6.99025c0,3.80298-3.1681,6.99025-7.07155,6.99025Z"/></g></g></g></svg>