<?xml version="1.0" encoding="UTF-8"?>
<svg id="a" data-name="Layer 1" xmlns="http://www.w3.org/2000/svg" viewBox="0 0 136.28 136.28">
  <g id="b">
    <g id="c">
      <g>
        <path d="m136.28,68.14c0,37.63-30.51,68.14-68.14,68.14S0,105.78,0,68.14,30.51,0,68.14,0s68.14,30.51,68.14,68.14h0Z" fill="#fff"/>
        <g>
          <path d="m85.26,47.18c0,9.45-7.66,17.11-17.11,17.11s-17.11-7.66-17.11-17.11,7.66-17.11,17.11-17.11,17.11,7.66,17.11,17.11Z" fill="#1e0050"/>
          <path d="m96.48,101.35h-56.68v-7.92c0-13.85,11.23-25.08,25.08-25.08h6.52c13.85,0,25.08,11.23,25.08,25.08v7.92h0Z" fill="#1e0050"/>
        </g>
      </g>
    </g>
  </g>
</svg>