<?xml version="1.0" encoding="UTF-8"?>
<svg id="a" data-name="Layer 1" xmlns="http://www.w3.org/2000/svg" viewBox="0 0 90 160.01">
  <g id="b">
    <g id="c">
      <g>
        <rect x="0" width="90" height="160" rx="12.03" ry="12.03" fill="#1e0050"/>
        <g>
          <path d="m90,109.25v38.72c0,6.65-5.39,12.03-12.03,12.03H14.77l37.2-51.85,16.16-22.26c1.21-1.66,3.68-1.66,4.89,0,0,0,16.99,23.36,16.99,23.36Z" fill="#984bff" isolation="isolate" opacity=".5"/>
          <path d="m51.97,108.15l-25.11-34.55c-1.51-2.08-4.61-2.08-6.12,0L0,102.12v45.85c0,6.65,5.39,12.03,12.03,12.03h65.94c3.6,0,6.82-1.59,9.03-4.1l-35.03-47.76Z" fill="#984bff"/>
          <path d="m80.16,68.51c0,5.15-4.17,9.32-9.32,9.32s-9.32-4.17-9.32-9.32,4.17-9.32,9.32-9.32,9.32,4.17,9.32,9.32Z" fill="#984bff" isolation="isolate" opacity=".5"/>
        </g>
      </g>
    </g>
  </g>
</svg>