<?xml version="1.0" encoding="UTF-8"?><svg xmlns="http://www.w3.org/2000/svg" viewBox="0 0 238.11378 53.6887"><defs><style>.d{fill:#984bff;}</style></defs><g id="a"/><g id="b"><g id="c"><g><polygon class="d" points="0 13.26902 17.30034 13.26902 17.30034 13.2713 28.20253 13.2713 28.20253 13.26902 46.23203 13.26902 46.23203 2.36683 0 2.36683 0 13.26902"/><rect class="d" x="17.30034" y="20.871" width="10.90219" height="32.8177"/><polygon class="d" points="88.52142 20.95469 64.89995 20.95469 64.89995 2.45337 53.99795 2.45337 53.99795 53.6887 64.89995 53.6887 64.89995 31.85745 88.52142 31.85745 88.52142 53.6887 99.42342 53.6887 99.42342 2.45337 88.52142 2.45337 88.52142 20.95469"/><polygon class="d" points="107.29648 4.4041 107.29648 13.26215 153.16059 13.26215 153.16059 2.35996 107.29877 2.35996 107.29648 4.4041"/><polygon class="d" points="118.20096 31.76404 148.58621 31.76404 148.58621 20.79379 107.29877 20.79379 107.29648 53.6887 153.16059 53.6887 153.16059 42.78651 118.20096 42.78651 118.20096 31.76404"/><rect class="d" x="162.61379" y="2.26236" width="10.90219" height="51.42634"/><polygon class="d" points="178.69695 53.6887 192.37244 53.6887 204.06936 32.55211 197.21027 20.23944 178.69695 53.6887"/><polygon class="d" points="208.35987 0 201.56886 12.36504 201.54598 12.40584 224.43829 53.6887 238.11378 53.6887 208.35987 0"/></g></g></g></svg>