<?xml version="1.0" encoding="UTF-8"?>
<svg xmlns="http://www.w3.org/2000/svg" viewBox="0 0 1136 201.01263">
    <defs>
        <style>.d{fill:#fff; }.e{isolation:isolate;}.f{mix-blend-mode:overlay;}</style>
    </defs>
    <g class="e">
        <g id="a"/>
        <g id="b">
            <g id="c">
                <g>
                    <g class="f">
                        <path class="d"
                              d="M490.99826,0H0V201.01263H1136V0H490.99826ZM93.91272,157.34683h-23.00508V88.09709h23.00508v69.24974Zm38.04466-85.29095h-38.04466v.00483h-23.00508v-.00483H34.40162v-23.00508h97.55576v23.00508Zm112.24095,85.29095h-23.00467v-46.06687h-49.84446v46.06687h-23.00467V49.23344h23.00467v39.04024h49.84446V49.23344h23.00467v108.1134Zm113.39262,0h-96.7794l.00483-69.41266h87.12202v23.14868h-64.11694v23.2589h73.7695v23.00508Zm0-85.30543h-96.7794v-18.69167l.00483-4.3134h96.77458v23.00508Zm42.9526,85.30543h-23.00508V48.83037h23.00508v108.51646Zm39.78965,0h-28.85711l39.06559-70.58242,14.47361,25.98137-24.68208,44.60104Zm67.66324,0l-48.30583-87.11236,.04827-.08608,14.33-26.09189,62.78467,113.29034h-28.85711Zm619.76534,35.42757H606.26499L504.92118,8.23822h622.8406V192.77441Z"/>
                        <rect class="d" x="697.72294" y="44.71126" width="23.00508" height="108.51646"/>
                        <path class="d"
                              d="M801.00845,130.22265h-35.44206c-3.46906-1.18827-5.9711-4.48597-5.9711-8.3581h-22.52639c0,2.89464,.39341,5.69837,1.12632,8.3581,3.65732,13.26161,15.80709,23.00508,30.23283,23.00508h32.5804c11.74751,0,22.67442-6.34118,28.52163-16.54885,2.82304-4.9365,4.31863-10.56809,4.31863-16.2906s-1.49559-11.3541-4.31863-16.2906c-5.84721-10.20848-16.77412-16.54885-28.52163-16.54885h-31.09929c-5.42564,0-9.83438-4.41437-9.83438-9.83518,0-5.42041,4.40874-9.83438,9.83438-9.83438h36.0028c3.46987,1.18867,5.97191,4.48597,5.97191,8.3585h22.52559c0-2.89504-.39341-5.69877-1.12632-8.3585-3.65652-13.26161-15.80628-23.00508-30.23283-23.00508h-33.14115c-11.75234,0-22.67925,6.34078-28.52645,16.54925-2.82223,4.9365-4.3138,10.56769-4.3138,16.2902s1.49157,11.3541,4.3138,16.2906c1.27033,2.21885,2.7804,4.25105,4.48597,6.0773,6.14488,6.58495,14.83845,10.47155,24.04048,10.47155h31.09929c5.42081,0,9.83518,4.41437,9.83518,9.83518,0,5.42001-4.41437,9.83438-9.83518,9.83438Z"/>
                        <rect class="d" x="850.84648" y="44.71126" width="23.00588" height="108.51646"/>
                        <path class="d"
                              d="M944.16044,153.22772c29.75736,0,53.9676-24.20943,53.9676-53.9684,0-29.75736-24.21024-53.96679-53.9676-53.96679s-53.9676,24.20984-53.9676,53.96679,24.21024,53.9684,53.9676,53.9684Zm0-85.40961c17.33727,0,31.44121,14.10514,31.44121,31.44121,0,17.33727-14.10393,31.44282-31.44121,31.44282s-31.44201-14.10554-31.44201-31.44201,14.10474-31.44201,31.44201-31.44201Z"/>
                        <polygon class="d"
                                 points="1053.38125 109.72444 1080.64783 136.98539 1096.88936 153.22772 1102.39224 153.22772 1102.39224 44.73057 1079.38636 44.73057 1079.38636 103.18696 1020.34067 44.14086 1014.63264 44.14086 1014.63264 46.92529 1014.62781 57.26329 1014.62781 70.97542 1037.63289 93.97527 1053.38125 109.72444"/>
                        <polygon class="d"
                                 points="1037.63289 116.65452 1014.62781 93.65427 1014.62781 153.08452 1037.63289 153.08452 1037.63289 116.65452"/>
                        <polygon class="d"
                                 points="681.84626 44.4864 652.98915 44.4864 628.30707 89.08745 642.78067 115.06882 681.84626 44.4864"/>
                        <polygon class="d"
                                 points="619.25347 157.77674 633.58347 131.68485 633.63174 131.59877 585.32591 44.4864 556.4688 44.4864 619.25347 157.77674"/>
                    </g>
                    <g class="f">
                        <path class="d"
                              d="M490.99826,0H0V201.01263H1136V0H490.99826ZM93.91272,157.34683h-23.00508V88.09709h23.00508v69.24974Zm38.04466-85.29095h-38.04466v.00483h-23.00508v-.00483H34.40162v-23.00508h97.55576v23.00508Zm112.24095,85.29095h-23.00467v-46.06687h-49.84446v46.06687h-23.00467V49.23344h23.00467v39.04024h49.84446V49.23344h23.00467v108.1134Zm113.39262,0h-96.7794l.00483-69.41266h87.12202v23.14868h-64.11694v23.2589h73.7695v23.00508Zm0-85.30543h-96.7794v-18.69167l.00483-4.3134h96.77458v23.00508Zm42.9526,85.30543h-23.00508V48.83037h23.00508v108.51646Zm39.78965,0h-28.85711l39.06559-70.58242,14.47361,25.98137-24.68208,44.60104Zm67.66324,0l-48.30583-87.11236,.04827-.08608,14.33-26.09189,62.78467,113.29034h-28.85711Zm619.76534,35.42757H606.26499L504.92118,8.23822h622.8406V192.77441Z"/>
                        <rect class="d" x="697.72294" y="44.71126" width="23.00508" height="108.51646"/>
                        <path class="d"
                              d="M801.00845,130.22265h-35.44206c-3.46906-1.18827-5.9711-4.48597-5.9711-8.3581h-22.52639c0,2.89464,.39341,5.69837,1.12632,8.3581,3.65732,13.26161,15.80709,23.00508,30.23283,23.00508h32.5804c11.74751,0,22.67442-6.34118,28.52163-16.54885,2.82304-4.9365,4.31863-10.56809,4.31863-16.2906s-1.49559-11.3541-4.31863-16.2906c-5.84721-10.20848-16.77412-16.54885-28.52163-16.54885h-31.09929c-5.42564,0-9.83438-4.41437-9.83438-9.83518,0-5.42041,4.40874-9.83438,9.83438-9.83438h36.0028c3.46987,1.18867,5.97191,4.48597,5.97191,8.3585h22.52559c0-2.89504-.39341-5.69877-1.12632-8.3585-3.65652-13.26161-15.80628-23.00508-30.23283-23.00508h-33.14115c-11.75234,0-22.67925,6.34078-28.52645,16.54925-2.82223,4.9365-4.3138,10.56769-4.3138,16.2902s1.49157,11.3541,4.3138,16.2906c1.27033,2.21885,2.7804,4.25105,4.48597,6.0773,6.14488,6.58495,14.83845,10.47155,24.04048,10.47155h31.09929c5.42081,0,9.83518,4.41437,9.83518,9.83518,0,5.42001-4.41437,9.83438-9.83518,9.83438Z"/>
                        <rect class="d" x="850.84648" y="44.71126" width="23.00588" height="108.51646"/>
                        <path class="d"
                              d="M944.16044,153.22772c29.75736,0,53.9676-24.20943,53.9676-53.9684,0-29.75736-24.21024-53.96679-53.9676-53.96679s-53.9676,24.20984-53.9676,53.96679,24.21024,53.9684,53.9676,53.9684Zm0-85.40961c17.33727,0,31.44121,14.10514,31.44121,31.44121,0,17.33727-14.10393,31.44282-31.44121,31.44282s-31.44201-14.10554-31.44201-31.44201,14.10474-31.44201,31.44201-31.44201Z"/>
                        <polygon class="d"
                                 points="1053.38125 109.72444 1080.64783 136.98539 1096.88936 153.22772 1102.39224 153.22772 1102.39224 44.73057 1079.38636 44.73057 1079.38636 103.18696 1020.34067 44.14086 1014.63264 44.14086 1014.63264 46.92529 1014.62781 57.26329 1014.62781 70.97542 1037.63289 93.97527 1053.38125 109.72444"/>
                        <polygon class="d"
                                 points="1037.63289 116.65452 1014.62781 93.65427 1014.62781 153.08452 1037.63289 153.08452 1037.63289 116.65452"/>
                        <polygon class="d"
                                 points="681.84626 44.4864 652.98915 44.4864 628.30707 89.08745 642.78067 115.06882 681.84626 44.4864"/>
                        <polygon class="d"
                                 points="619.25347 157.77674 633.58347 131.68485 633.63174 131.59877 585.32591 44.4864 556.4688 44.4864 619.25347 157.77674"/>
                    </g>
                </g>
            </g>
        </g>
    </g>
</svg>